<?xml version="1.0" encoding="UTF-8" standalone="no"?><svg xmlns="http://www.w3.org/2000/svg" xmlns:xlink="http://www.w3.org/1999/xlink" contentScriptType="application/ecmascript" contentStyleType="text/css" height="254px" preserveAspectRatio="none" style="width:351px;height:254px;background:#FFFFFF;" version="1.1" viewBox="0 0 351 254" width="351px" zoomAndPan="magnify">
    <defs />
    <g>
        <line style="stroke:#C0C0C0;stroke-width:1.0;" x1="0" x2="0" y1="0" y2="15" />
        <line style="stroke:#C0C0C0;stroke-width:1.0;" x1="92.8" x2="92.8" y1="0" y2="15" /><text fill="#000000" font-family="Serif" font-size="12" font-weight="bold" lengthAdjust="spacing" textLength="24" x="34.4" y="12.5742">2020</text><text fill="#000000" font-family="Serif" font-size="12" font-weight="bold" lengthAdjust="spacing" textLength="24" x="152.2667" y="12.5742">2021</text>
        <line style="stroke:#C0C0C0;stroke-width:1.0;" x1="235.7333" x2="235.7333" y1="0" y2="15" />
        <line style="stroke:#C0C0C0;stroke-width:1.0;" x1="0" x2="0" y1="16" y2="28" />
        <line style="stroke:#C0C0C0;stroke-width:1.0;" x1="27.7333" x2="27.7333" y1="16" y2="28" /><text fill="#000000" font-family="Serif" font-size="10" lengthAdjust="spacing" textLength="14" x="6.8667" y="26.4785">Oct</text>
        <line style="stroke:#C0C0C0;stroke-width:1.0;" x1="59.7333" x2="59.7333" y1="16" y2="28" /><text fill="#000000" font-family="Serif" font-size="10" lengthAdjust="spacing" textLength="17" x="35.2333" y="26.4785">Nov</text>
        <line style="stroke:#C0C0C0;stroke-width:1.0;" x1="92.8" x2="92.8" y1="16" y2="28" /><text fill="#000000" font-family="Serif" font-size="10" lengthAdjust="spacing" textLength="15" x="68.7667" y="26.4785">Dec</text>
        <line style="stroke:#C0C0C0;stroke-width:1.0;" x1="125.8667" x2="125.8667" y1="16" y2="28" /><text fill="#000000" font-family="Serif" font-size="10" lengthAdjust="spacing" textLength="30" x="94.3333" y="26.4785">January</text>
        <line style="stroke:#C0C0C0;stroke-width:1.0;" x1="155.7333" x2="155.7333" y1="16" y2="28" /><text fill="#000000" font-family="Serif" font-size="10" lengthAdjust="spacing" textLength="15" x="133.3" y="26.4785">Feb</text>
        <line style="stroke:#C0C0C0;stroke-width:1.0;" x1="188.8" x2="188.8" y1="16" y2="28" /><text fill="#000000" font-family="Serif" font-size="10" lengthAdjust="spacing" textLength="25" x="159.7667" y="26.4785">March</text>
        <line style="stroke:#C0C0C0;stroke-width:1.0;" x1="220.8" x2="220.8" y1="16" y2="28" /><text fill="#000000" font-family="Serif" font-size="10" lengthAdjust="spacing" textLength="21" x="194.3" y="26.4785">April</text><text fill="#000000" font-family="Serif" font-size="10" lengthAdjust="spacing" textLength="18" x="220.8" y="26.4785">May</text>
        <line style="stroke:#C0C0C0;stroke-width:1.0;" x1="235.7333" x2="235.7333" y1="16" y2="28" />
        <line style="stroke:#C0C0C0;stroke-width:1.0;" x1="0" x2="235.7333" y1="0" y2="0" />
        <line style="stroke:#C0C0C0;stroke-width:1.0;" x1="0" x2="235.7333" y1="16" y2="16" />
        <line style="stroke:#C0C0C0;stroke-width:1.0;" x1="0" x2="235.7333" y1="29" y2="29" />
        <line style="stroke:#A80036;stroke-width:1.5;" x1="66.7333" x2="66.7333" y1="76.6719" y2="87.5898" />
        <line style="stroke:#A80036;stroke-width:1.5;" x1="66.7333" x2="74.7333" y1="87.5898" y2="87.5898" />
        <polygon fill="#A80036" points="70.7333,83.5898,70.7333,87.5898,70.7333,91.5898,74.7333,87.5898" style="stroke:#A80036;stroke-width:1.5;" />
        <line style="stroke:#A80036;stroke-width:1.5;" x1="106.7333" x2="114.7333" y1="87.5898" y2="87.5898" />
        <line style="stroke:#A80036;stroke-width:1.5;" x1="114.7333" x2="114.7333" y1="87.5898" y2="123.2617" />
        <line style="stroke:#A80036;stroke-width:1.5;" x1="114.7333" x2="99.2667" y1="123.2617" y2="123.2617" />
        <polygon fill="#A80036" points="103.2667,119.2617,103.2667,123.2617,103.2667,127.2617,99.2667,123.2617" style="stroke:#A80036;stroke-width:1.5;" />
        <line style="stroke:#A80036;stroke-width:1.5;" x1="139.8" x2="131.8" y1="158.9336" y2="158.9336" />
        <line style="stroke:#A80036;stroke-width:1.5;" x1="131.8" x2="131.8" y1="158.9336" y2="176.7695" />
        <line style="stroke:#A80036;stroke-width:1.5;" x1="131.8" x2="160.0667" y1="176.7695" y2="176.7695" />
        <polygon fill="#A80036" points="156.0667,172.7695,156.0667,176.7695,156.0667,180.7695,160.0667,176.7695" style="stroke:#A80036;stroke-width:1.5;" />
        <line style="stroke:#A80036;stroke-width:1.5;" x1="73.6667" x2="79.6667" y1="69.7539" y2="69.7539" />
        <line style="stroke:#A80036;stroke-width:1.5;" x1="79.6667" x2="79.6667" y1="69.7539" y2="96.5078" />
        <line style="stroke:#A80036;stroke-width:1.5;" x1="79.6667" x2="65.6667" y1="96.5078" y2="96.5078" />
        <line style="stroke:#A80036;stroke-width:1.5;" x1="65.6667" x2="65.6667" y1="96.5078" y2="105.4258" />
        <line style="stroke:#A80036;stroke-width:1.5;" x1="65.6667" x2="73.6667" y1="105.4258" y2="105.4258" />
        <polygon fill="#A80036" points="69.6667,101.4258,69.6667,105.4258,69.6667,109.4258,73.6667,105.4258" style="stroke:#A80036;stroke-width:1.5;" />
        <line style="stroke:#A80036;stroke-width:1.5;" x1="106.7333" x2="112.7333" y1="105.4258" y2="105.4258" />
        <line style="stroke:#A80036;stroke-width:1.5;" x1="112.7333" x2="112.7333" y1="105.4258" y2="132.1797" />
        <line style="stroke:#A80036;stroke-width:1.5;" x1="112.7333" x2="98.7333" y1="132.1797" y2="132.1797" />
        <line style="stroke:#A80036;stroke-width:1.5;" x1="98.7333" x2="98.7333" y1="132.1797" y2="141.0977" />
        <line style="stroke:#A80036;stroke-width:1.5;" x1="98.7333" x2="106.7333" y1="141.0977" y2="141.0977" />
        <polygon fill="#A80036" points="102.7333,137.0977,102.7333,141.0977,102.7333,145.0977,106.7333,141.0977" style="stroke:#A80036;stroke-width:1.5;" />
        <line style="stroke:#A80036;stroke-width:1.5;" x1="139.8" x2="145.8" y1="141.0977" y2="141.0977" />
        <line style="stroke:#A80036;stroke-width:1.5;" x1="145.8" x2="145.8" y1="141.0977" y2="150.0156" />
        <line style="stroke:#A80036;stroke-width:1.5;" x1="145.8" x2="131.8" y1="150.0156" y2="150.0156" />
        <line style="stroke:#A80036;stroke-width:1.5;" x1="131.8" x2="131.8" y1="150.0156" y2="158.9336" />
        <line style="stroke:#A80036;stroke-width:1.5;" x1="131.8" x2="139.8" y1="158.9336" y2="158.9336" />
        <polygon fill="#A80036" points="135.8,154.9336,135.8,158.9336,135.8,162.9336,139.8,158.9336" style="stroke:#A80036;stroke-width:1.5;" />
        <line style="stroke:#A80036;stroke-width:1.5;" x1="169.6667" x2="175.6667" y1="158.9336" y2="158.9336" />
        <line style="stroke:#A80036;stroke-width:1.5;" x1="175.6667" x2="175.6667" y1="158.9336" y2="185.6875" />
        <line style="stroke:#A80036;stroke-width:1.5;" x1="175.6667" x2="161.6667" y1="185.6875" y2="185.6875" />
        <line style="stroke:#A80036;stroke-width:1.5;" x1="161.6667" x2="161.6667" y1="185.6875" y2="194.6055" />
        <line style="stroke:#A80036;stroke-width:1.5;" x1="161.6667" x2="169.6667" y1="194.6055" y2="194.6055" />
        <polygon fill="#A80036" points="165.6667,190.6055,165.6667,194.6055,165.6667,198.6055,169.6667,194.6055" style="stroke:#A80036;stroke-width:1.5;" />
        <line style="stroke:#A80036;stroke-width:1.5;" x1="202.7333" x2="208.7333" y1="194.6055" y2="194.6055" />
        <line style="stroke:#A80036;stroke-width:1.5;" x1="208.7333" x2="208.7333" y1="194.6055" y2="203.5234" />
        <line style="stroke:#A80036;stroke-width:1.5;" x1="208.7333" x2="194.7333" y1="203.5234" y2="203.5234" />
        <line style="stroke:#A80036;stroke-width:1.5;" x1="194.7333" x2="194.7333" y1="203.5234" y2="212.4414" />
        <line style="stroke:#A80036;stroke-width:1.5;" x1="194.7333" x2="202.7333" y1="212.4414" y2="212.4414" />
        <polygon fill="#A80036" points="198.7333,208.4414,198.7333,212.4414,198.7333,216.4414,202.7333,212.4414" style="stroke:#A80036;stroke-width:1.5;" />
        <polygon fill="#000000" points="0.5333,31,5.5333,36,0.5333,41,-4.4667,36" style="stroke:#000000;stroke-width:1.0;" />
        <rect fill="#ADFF2F" height="13.8359" style="stroke:none;stroke-width:1.0;" width="60" x="12.6667" y="45" />
        <line style="stroke:#008000;stroke-width:1.0;" x1="12.6667" x2="72.6667" y1="45" y2="45" />
        <line style="stroke:#008000;stroke-width:1.0;" x1="12.6667" x2="72.6667" y1="58.8359" y2="58.8359" />
        <line style="stroke:#008000;stroke-width:1.0;" x1="12.6667" x2="12.6667" y1="45" y2="58.8359" />
        <line style="stroke:#008000;stroke-width:1.0;" x1="72.6667" x2="72.6667" y1="45" y2="58.8359" />
        <rect fill="#ADFF2F" height="13.8359" style="stroke:none;stroke-width:1.0;" width="71.7333" x="0.9333" y="62.8359" />
        <line style="stroke:#008000;stroke-width:1.0;" x1="0.9333" x2="72.6667" y1="62.8359" y2="62.8359" />
        <line style="stroke:#008000;stroke-width:1.0;" x1="0.9333" x2="72.6667" y1="76.6719" y2="76.6719" />
        <line style="stroke:#008000;stroke-width:1.0;" x1="0.9333" x2="0.9333" y1="62.8359" y2="76.6719" />
        <line style="stroke:#008000;stroke-width:1.0;" x1="72.6667" x2="72.6667" y1="62.8359" y2="76.6719" />
        <rect fill="#ADFF2F" height="13.8359" style="stroke:none;stroke-width:1.0;" width="28" x="77.7333" y="80.6719" />
        <line style="stroke:#008000;stroke-width:1.0;" x1="77.7333" x2="105.7333" y1="80.6719" y2="80.6719" />
        <line style="stroke:#008000;stroke-width:1.0;" x1="77.7333" x2="105.7333" y1="94.5078" y2="94.5078" />
        <line style="stroke:#008000;stroke-width:1.0;" x1="77.7333" x2="77.7333" y1="80.6719" y2="94.5078" />
        <line style="stroke:#008000;stroke-width:1.0;" x1="105.7333" x2="105.7333" y1="80.6719" y2="94.5078" />
        <rect fill="#ADFF2F" height="13.8359" style="stroke:none;stroke-width:1.0;" width="29.0667" x="76.6667" y="98.5078" />
        <line style="stroke:#008000;stroke-width:1.0;" x1="76.6667" x2="105.7333" y1="98.5078" y2="98.5078" />
        <line style="stroke:#008000;stroke-width:1.0;" x1="76.6667" x2="105.7333" y1="112.3438" y2="112.3438" />
        <line style="stroke:#008000;stroke-width:1.0;" x1="76.6667" x2="76.6667" y1="98.5078" y2="112.3438" />
        <line style="stroke:#008000;stroke-width:1.0;" x1="105.7333" x2="105.7333" y1="98.5078" y2="112.3438" />
        <rect fill="#ADFF2F" height="13.8359" style="stroke:none;stroke-width:1.0;" width="1" x="99.0667" y="116.3438" />
        <line style="stroke:#008000;stroke-width:1.0;" x1="99.0667" x2="100.0667" y1="116.3438" y2="116.3438" />
        <line style="stroke:#008000;stroke-width:1.0;" x1="99.0667" x2="100.0667" y1="130.1797" y2="130.1797" />
        <line style="stroke:#008000;stroke-width:1.0;" x1="99.0667" x2="99.0667" y1="116.3438" y2="130.1797" />
        <line style="stroke:#008000;stroke-width:1.0;" x1="100.0667" x2="100.0667" y1="116.3438" y2="130.1797" />
        <rect fill="#ADFF2F" height="13.8359" style="stroke:none;stroke-width:1.0;" width="5.8133" x="109.7333" y="134.1797" />
        <rect fill="#FFFFFF" height="13.8359" style="stroke:none;stroke-width:1.0;" width="23.2533" x="115.5467" y="134.1797" />
        <line style="stroke:#008000;stroke-width:1.0;" x1="109.7333" x2="138.8" y1="134.1797" y2="134.1797" />
        <line style="stroke:#008000;stroke-width:1.0;" x1="109.7333" x2="138.8" y1="148.0156" y2="148.0156" />
        <line style="stroke:#008000;stroke-width:1.0;" x1="109.7333" x2="109.7333" y1="134.1797" y2="148.0156" />
        <line style="stroke:#008000;stroke-width:1.0;" x1="138.8" x2="138.8" y1="134.1797" y2="148.0156" />
        <rect fill="#FFFFFF" height="13.8359" style="stroke:none;stroke-width:1.0;" width="25.8667" x="142.8" y="152.0156" />
        <line style="stroke:#008000;stroke-width:1.0;" x1="142.8" x2="168.6667" y1="152.0156" y2="152.0156" />
        <line style="stroke:#008000;stroke-width:1.0;" x1="142.8" x2="168.6667" y1="165.8516" y2="165.8516" />
        <line style="stroke:#008000;stroke-width:1.0;" x1="142.8" x2="142.8" y1="152.0156" y2="165.8516" />
        <line style="stroke:#008000;stroke-width:1.0;" x1="168.6667" x2="168.6667" y1="152.0156" y2="165.8516" />
        <rect fill="#ADFF2F" height="13.8359" style="stroke:none;stroke-width:1.0;" width="1" x="163.0667" y="169.8516" />
        <line style="stroke:#008000;stroke-width:1.0;" x1="163.0667" x2="164.0667" y1="169.8516" y2="169.8516" />
        <line style="stroke:#008000;stroke-width:1.0;" x1="163.0667" x2="164.0667" y1="183.6875" y2="183.6875" />
        <line style="stroke:#008000;stroke-width:1.0;" x1="163.0667" x2="163.0667" y1="169.8516" y2="183.6875" />
        <line style="stroke:#008000;stroke-width:1.0;" x1="164.0667" x2="164.0667" y1="169.8516" y2="183.6875" />
        <rect fill="#FFFFFF" height="13.8359" style="stroke:none;stroke-width:1.0;" width="29.0667" x="172.6667" y="187.6875" />
        <line style="stroke:#008000;stroke-width:1.0;" x1="172.6667" x2="201.7333" y1="187.6875" y2="187.6875" />
        <line style="stroke:#008000;stroke-width:1.0;" x1="172.6667" x2="201.7333" y1="201.5234" y2="201.5234" />
        <line style="stroke:#008000;stroke-width:1.0;" x1="172.6667" x2="172.6667" y1="187.6875" y2="201.5234" />
        <line style="stroke:#008000;stroke-width:1.0;" x1="201.7333" x2="201.7333" y1="187.6875" y2="201.5234" />
        <rect fill="#FFFFFF" height="13.8359" style="stroke:none;stroke-width:1.0;" width="28" x="205.7333" y="205.5234" />
        <line style="stroke:#008000;stroke-width:1.0;" x1="205.7333" x2="233.7333" y1="205.5234" y2="205.5234" />
        <line style="stroke:#008000;stroke-width:1.0;" x1="205.7333" x2="233.7333" y1="219.3594" y2="219.3594" />
        <line style="stroke:#008000;stroke-width:1.0;" x1="205.7333" x2="205.7333" y1="205.5234" y2="219.3594" />
        <line style="stroke:#008000;stroke-width:1.0;" x1="233.7333" x2="233.7333" y1="205.5234" y2="219.3594" /><text fill="#000000" font-family="sans-serif" font-size="11" lengthAdjust="spacing" textLength="85" x="8.5333" y="40.501">Notice to Proceed</text><text fill="#000000" font-family="sans-serif" font-size="11" lengthAdjust="spacing" textLength="115" x="76.6667" y="56.4189">Model Code Deployment</text><text fill="#000000" font-family="sans-serif" font-size="11" lengthAdjust="spacing" textLength="134" x="76.6667" y="74.2549">Requirements Determination</text><text fill="#000000" font-family="sans-serif" font-size="11" lengthAdjust="spacing" textLength="116" x="119.7333" y="92.0908">Requirements Validation</text><text fill="#000000" font-family="sans-serif" font-size="11" lengthAdjust="spacing" textLength="100" x="109.7333" y="109.9268">Predevelopment Plan</text><text fill="#000000" font-family="sans-serif" font-size="11" lengthAdjust="spacing" textLength="178" x="112.2667" y="127.7627">End User Data Dictionary Workshops</text><text fill="#000000" font-family="sans-serif" font-size="11" lengthAdjust="spacing" textLength="70" x="142.8" y="145.5986">Implementation</text><text fill="#000000" font-family="sans-serif" font-size="11" lengthAdjust="spacing" textLength="90" x="172.6667" y="163.4346">Quality Assurance</text><text fill="#000000" font-family="sans-serif" font-size="11" lengthAdjust="spacing" textLength="185" x="164.1333" y="181.2705">Local Data Characterization Workshop</text><text fill="#000000" font-family="sans-serif" font-size="11" lengthAdjust="spacing" textLength="107" x="205.7333" y="199.1064">End-User Acceptance</text><text fill="#000000" font-family="sans-serif" font-size="11" lengthAdjust="spacing" textLength="56" x="237.7333" y="216.9424">Deployment</text>
        <line style="stroke:#C0C0C0;stroke-width:1.0;" x1="0" x2="0" y1="224.3594" y2="236.3594" />
        <line style="stroke:#C0C0C0;stroke-width:1.0;" x1="27.7333" x2="27.7333" y1="224.3594" y2="236.3594" /><text fill="#000000" font-family="Serif" font-size="10" lengthAdjust="spacing" textLength="14" x="6.8667" y="234.8379">Oct</text>
        <line style="stroke:#C0C0C0;stroke-width:1.0;" x1="59.7333" x2="59.7333" y1="224.3594" y2="236.3594" /><text fill="#000000" font-family="Serif" font-size="10" lengthAdjust="spacing" textLength="17" x="35.2333" y="234.8379">Nov</text>
        <line style="stroke:#C0C0C0;stroke-width:1.0;" x1="92.8" x2="92.8" y1="224.3594" y2="236.3594" /><text fill="#000000" font-family="Serif" font-size="10" lengthAdjust="spacing" textLength="15" x="68.7667" y="234.8379">Dec</text>
        <line style="stroke:#C0C0C0;stroke-width:1.0;" x1="125.8667" x2="125.8667" y1="224.3594" y2="236.3594" /><text fill="#000000" font-family="Serif" font-size="10" lengthAdjust="spacing" textLength="30" x="94.3333" y="234.8379">January</text>
        <line style="stroke:#C0C0C0;stroke-width:1.0;" x1="155.7333" x2="155.7333" y1="224.3594" y2="236.3594" /><text fill="#000000" font-family="Serif" font-size="10" lengthAdjust="spacing" textLength="15" x="133.3" y="234.8379">Feb</text>
        <line style="stroke:#C0C0C0;stroke-width:1.0;" x1="188.8" x2="188.8" y1="224.3594" y2="236.3594" /><text fill="#000000" font-family="Serif" font-size="10" lengthAdjust="spacing" textLength="25" x="159.7667" y="234.8379">March</text>
        <line style="stroke:#C0C0C0;stroke-width:1.0;" x1="220.8" x2="220.8" y1="224.3594" y2="236.3594" /><text fill="#000000" font-family="Serif" font-size="10" lengthAdjust="spacing" textLength="21" x="194.3" y="234.8379">April</text><text fill="#000000" font-family="Serif" font-size="10" lengthAdjust="spacing" textLength="18" x="220.8" y="234.8379">May</text>
        <line style="stroke:#C0C0C0;stroke-width:1.0;" x1="235.7333" x2="235.7333" y1="224.3594" y2="236.3594" />
        <line style="stroke:#C0C0C0;stroke-width:1.0;" x1="0" x2="0" y1="237.3594" y2="252.3594" />
        <line style="stroke:#C0C0C0;stroke-width:1.0;" x1="92.8" x2="92.8" y1="237.3594" y2="252.3594" /><text fill="#000000" font-family="Serif" font-size="12" font-weight="bold" lengthAdjust="spacing" textLength="24" x="34.4" y="249.9336">2020</text><text fill="#000000" font-family="Serif" font-size="12" font-weight="bold" lengthAdjust="spacing" textLength="24" x="152.2667" y="249.9336">2021</text>
        <line style="stroke:#C0C0C0;stroke-width:1.0;" x1="235.7333" x2="235.7333" y1="237.3594" y2="252.3594" />
        <line style="stroke:#C0C0C0;stroke-width:1.0;" x1="0" x2="235.7333" y1="224.3594" y2="224.3594" />
        <line style="stroke:#C0C0C0;stroke-width:1.0;" x1="0" x2="235.7333" y1="237.3594" y2="237.3594" />
        <line style="stroke:#C0C0C0;stroke-width:1.0;" x1="0" x2="235.7333" y1="252.3594" y2="252.3594" />
        <!--MD5=[ea71d909e93548cd87cde366abf3e356]
@startgantt
<style>
ganttDiagram {
  task {
    BackGroundColor GreenYellow
    LineColor Green
    unstarted {
      BackGroundColor GreenYellow
      LineColor Green
    }
  }
}
</style>
printscale monthly
Project starts 2020-10-06
[Notice to Proceed] happens on 2020-10-06
[Model Code Deployment] lasts 60 days and ends on 2020-12-14
[Requirements Determination] lasts 71 days and ends on 2020-12-14
then [Requirements Validation] lasts 30 days and ends on 2021-01-14
[Predevelopment Plan] lasts 30 days and ends on 2021-01-14
[End User Data Dictionary Workshops] lasts 3 days and ends 7 days before [Requirements Validation]'s end
[Implementation] lasts 30 days and ends on 2021-02-14 and is 20% complete
[Quality Assurance] lasts 30 days and ends on 2021-03-14 and is 0% complete
[Local Data Characterization Workshop] starts 21 days after [Quality Assurance]'s start and lasts 1 day
[End-User Acceptance] lasts 30 days and ends on 2021-04-14 and is 0% complete
[Deployment] lasts 30 days and ends on 2021-05-14 and is 0% complete

[Requirements Determination]->[Predevelopment Plan]
[Predevelopment Plan]->[Implementation]
[Implementation]->[Quality Assurance]
[Quality Assurance]->[End-User Acceptance]
[End-User Acceptance]->[Deployment]
@endgantt

PlantUML version 1.2021.16(Wed Dec 08 11:25:22 CST 2021)
(GPL source distribution)
Java Runtime: Java(TM) SE Runtime Environment
JVM: Java HotSpot(TM) 64-Bit Server VM
Default Encoding: Cp1252
Language: en
Country: US
-->
    </g>
</svg>